<?xml version="1.0" encoding="UTF-8"?>
<svg id="Capa_2" data-name="Capa 2" xmlns="http://www.w3.org/2000/svg" viewBox="0 0 60 60">
  <defs>
    <style>
      .cls-1 {
        fill: #fff;
      }

      .cls-2 {
        fill: #a01515;
      }
    </style>
  </defs>
  <g id="Capa_1-2" data-name="Capa 1">
    <g>
      <circle class="cls-2" cx="30" cy="30" r="30"/>
      <path class="cls-1" d="M46,24h-10v-10c0-1.1-.9-2-2-2h-8c-1.1,0-2,.9-2,2v10h-10c-1.1,0-2,.9-2,2v8c0,1.1.9,2,2,2h10v10c0,1.1.9,2,2,2h8c1.1,0,2-.9,2-2v-10h10c1.1,0,2-.9,2-2v-8c0-1.1-.9-2-2-2Z"/>
    </g>
  </g>
</svg>