<?xml version="1.0" encoding="UTF-8"?>
<svg id="Capa_2" data-name="Capa 2" xmlns="http://www.w3.org/2000/svg" viewBox="0 0 185.24 67.87">
  <defs>
    <style>
      .cls-1 {
        fill: #d51218;
      }
    </style>
  </defs>
  <g id="Capa_1-2" data-name="Capa 1">
    <g>
      <g>
        <path class="cls-1" d="M164.46,1.89c-.95.47-1.53.76-1.97.85s-1.22-.68-1.85-1.21l1.33-.74,2.49,1.1Z"/>
        <path class="cls-1" d="M110.82,3.24l-2.59-.66c.29-1.08,2.04-1.02,2.54-.56.13.12.09.83.05,1.22Z"/>
        <path class="cls-1" d="M77.74,8.36l7.31.07,3.07-.04,5.41.03,2.97-.11,3.89.02c3.33.02,7.29.04,10.49.25.25.02.93-.45,1.05-.26l.56.84c1.71-.6,3.75-.22,5.3-.36,2.76-.25,5.24-.43,7.87-.41l4.84.05c6.21.07,10.87-.23,17.06-.12l-.04,1.79c-.94-.07-2.24-.18-3.26-.16l-10.22.14-18.11.02h-15.54s-8.86-.04-8.86-.04c.1-.7.07-1.01-.19-.57-1.14.48-1.73.68-2.69.68l-19.29-.09,1.31-.64-1.55-1.04,8.63-.05Z"/>
        <path class="cls-1" d="M8.13,16.4l.11-7.97,8.17-.03,8.41.03,5.37-.05c3.9-.04,2.5.82,10.32.33l3.69-.23,7.39-.02h2.84s8.75-.04,8.75-.04h5.45c-1.84.97-3.77.14-5.38,1.6l-12.64.13-36.45.04-1.02-.63-2.85.83-1.66,2.1,1.26-.24.04,3.27c0,.55.01,1.13-.29,1.31-.5.3-1.52,0-1.51-.46Z"/>
        <path class="cls-1" d="M8.44.3c6.44-.83-.15,2.77,9.73,1.23l-2.82-1.25,6.99-.11,12.02.05c.22,0,.86-.23.99-.07l.54.72c1.57-.24,3.04.07,4.64.47,1.85.45,6.11-.77,6.41-.52,0,0-.15-.34-.28-.64l24.12-.02,13.57.02c1.14,0,1.82.15,2.67.89.6-.51,1.75-1.11,2.59-.94l1.21.24c.24.05.23.7.34,1.15l4.68.42c.13.01.67-.21.79-.28s.25-.35.13-.41c-1.79-.96-1.75.62-3.36-1.07l16.96-.09c.99,0,2.01.39,2.84.48l6.66.72c4.06.44,4.74-1.2,6.91-1.19l31.82.04c.49.06.15,1.61.03,2.1.33-.08.7-.63,1.17-1.43.41-.7,2.15-.96,2.89-.51,2.19,1.31,2.11-.68,6.68-.21.37.79.78,1.21,1.77,1.18.53-.01.88-.42,1.26-1.15l2.11-.04c.37,2.11,4.18,2.29,5.36,1.26l-2.79-1.07c1.83-.46,3.59.17,4.98,1.22,2.21,1.66,3.22,3.64,3.17,6.38l-.06,3.38c-.06,3.25.63,2.58-1.21,4.42-.19.19,1.24.65,1.24.96l.04,15.8c0,.21-.5.71-.58.65-.15-.1.11.08.55.37l.03,9.73-.04,16.96c0,.26-.48.57-.45.69l.15.8c.23,1.18-.75,2.22-1.39,3.27-.8,1.32-2.72,2.76-4.54,2.77l-27.76.12-8.95-.05-14.01.05h-22.18s-23.73,0-23.73,0h-5.13s-9.97.02-9.97.02l-40.23.07-13.57-.04-6.87-.12c-3.61-.06-6.44-3.3-6.45-6.86l-.02-7.08,1.06-.13C-.06,52.47,0,51.71,0,50.4l.06-7.48L0,23.79c.36-.15.98-.35,1.37-.46l.8-.23c.16-.05-.11-.71-.26-.67l-.75.18-.84.21C.1,22.88,0,22.07,0,21.73L.1,7.05c.02-2.24,1.54-4.32,3.07-5.58C4.89.08,6.62.54,8.44.3ZM6.69,64.3l9.52-.17,4.55.1,3.82-.15,11.52.06h7.64s3.34,0,3.34,0l10.98-.04c.77,0,1.49.27,1.82.86l-3.17-.07,2.46,2.05.93-.69c.2-.15.9.38,1.15.38h.74c.14,0,.2-.45.09-.53l-.64-.44c2.37-2.18,2.76-1.46,6.28-1.49l6.65-.06c2.65-.02,5.27-.13,7.89.2,1.23.16,2.08-.02,3.4-.15,1.89-.17,4.07-.17,6.06-.14l12.12.22c1.19.02,2.85-.36,4.02.02,1.12.35,1.66,1.38,3,.88l-2.26-1.02,10.64-.04h6.68s10.96-.04,10.96-.04c1.57,0,2.56.68,3.55,1.83l2.29,1.44c.99-1,1.58-1.12,2.94-1.08l-1.47-.84,2.47-1.3,13.42-.02c3.03,0,1.01.61,5.87,0,1.06.67,1.68.69,2.82.75l3.06.17c-.26-.34-.38-.48-.56-.53l-.95-.28c1.99-.13,3.99-.24,6.12-.2,1.22.02,2.55.13,3.41-.39.94-.56,1.74-2.03,1.74-3.11v-6.43s-.03-20.9-.03-20.9v-6.65s0-18.62,0-18.62c0-1.76-.9-3.91-3.01-4.02-1.86-.1-4.02-.07-5.93-.05-.37,0-.71-.76-.82-1.24-1.24-.51-3.18-.59-4.6-.36l-.66,1.59h-22.13s1.95-1.85,1.95-1.85c-.63-.25-1.36-.25-2.01-.05l-1.31.39.74,1.2c-2.23.39-4.2.3-6.41.31l-19.56.04-4.11.03h-4.12s-14.21,0-14.21,0l-6.75.05-.56-1.73-.95,1.73-25.76-.03,2.09-1.2c-.19-.18-.95-.7-1.33-.86-.34-.14-1.21.4-1.56.39h-1.85s.89.43.89.43c.15.07-.05.56-.11.91-1.15.14-2.59.35-3.95.35h-23.28s.65-.84.65-.84c.11-.14.01-.44-.12-.55-.54-.43-1.27-.89-1.59-.61-.39.34-1,.91-.98.92,1.41.17,1.12.19.65,1.09H7.35c-2.07-.01-3.66,1.58-3.66,3.63v13.03c0,.54.44,2.89-.87,2.83,1.53.07.84,8.86.72,8.87l-1.38.09,1.53.81.05,6.49.1,3.97c-1.11.31-2.03.73-2.37,1.79,1.09.04,1.4-.51,2.29-1.27l-.02,9.31.11,8.5c-.67-.02-1.08-.02-1.36.04-.2.05-.18,1.01,0,.99l1.68-.25,2.53,1.57ZM164.46,1.89l-2.49-1.1-1.33.74c.63.53,1.42,1.3,1.85,1.21s1.01-.39,1.97-.85ZM110.82,3.24c.04-.38.08-1.09-.05-1.22-.5-.46-2.25-.53-2.54.56l2.59.66Z"/>
        <path class="cls-1" d="M8.33,57.76c1.23-.58-.91-1.66-.03-2.33.24-.18.74-.28,1.19-.33.36-.04.48.76.51,1.22l.08,1.55h11.3s14.29,0,14.29,0l9.93-.02c7.44-.01,14.73-.28,22.18.23,1.3.09,2.09-.1,3.44-.11l46.27-.21h10.03s24.22.06,24.22.06l-.76.37c-1.25.6.61,1.82,4.37-.35l19.62-.1.66-1.46c-.19-.84-.06-1.52-.1-2.32l-.18-3.69c0-.14.44-.67.52-.79s-.29-.22-.5-.33l.04-15.47.84-.38c.21-.1.85.58.85.96l-.04,25.09c-1.26.29-2.23.12-3.36.13l-15.32.08c-2.02,0-1.89-1.75-2.85-.66-.12.13.49.38.94.68l-26.6-.03-9.72-.03-4.57-.06-5.9.06-31.39.08-4.12-.02h-5.58s-19.84.02-19.84.02c-2.28,0-4.43.04-6.68-.12-1.33-.09-2.46.04-3.86.05l-23.66.06-6.01.04-.21-1.89Z"/>
        <path class="cls-1" d="M170.05,9.78c-.4-.18-1.05.22-1.44.22l-13.64.09-5.4-.11c1.65-.36,3.2-.42,4.99-.5l-1.28-1.1c4.54-.01,8.92-.21,13.4.15,1.64-.11,3.51-.23,5.45-.19l4.92.11.02,7.52v16.48c0,.33-1.24.53-1.38.27s-.4-.85-.39-1.2v-2.63s.08-4.41.08-4.41c0-.19.43-.54.58-.66s-.58-.73-.58-1.01l-.04-10.16c0-1.33.11-2.28.23-3.72-1.75,1.08-3.74,1.68-5.52.85Z"/>
        <path class="cls-1" d="M8.2,43.26l.03-7.1-.05-6.16c0-.31.7-1.05.62-1.27l-.36-.9c.03-.59.02-1.01-.03-1.82-.17-.35,1.5-.02,1.5.44v6.39s.07,20.85.07,20.85c-.65.04-1.73-.63-1.73-1.14l-.04-9.3Z"/>
        <path class="cls-1" d="M9.95,23.63c-1.53.22-1.8-1.05-1.78-2.2l.07-3.37c0-.46,1.67-.43,1.67.03l.04,5.54Z"/>
      </g>
      <g>
        <path class="cls-1" d="M27.16,34.92s-.07-.06-.11-.08-.08-.05-.11-.08c-.02-.03-.04-.07-.05-.1s-.04-.07-.07-.1c-.07-.05-.17-.09-.32-.11s-.26-.03-.35-.03c-.1,0-.21.01-.33.04s-.21.1-.26.2c-.03.05-.04.11-.03.16s0,.12,0,.18c-.01.06-.03.11-.05.14s-.04.07-.05.1-.03.07-.04.12-.02.11-.02.2c0,.05-.02.1-.05.14s-.05.1-.05.16c0,.09.03.18.1.28s.15.18.25.26.21.15.32.2.21.08.3.08c.15,0,.26-.04.32-.12s.13-.17.21-.26c.05-.06.11-.11.19-.16s.14-.1.2-.16.12-.12.16-.18.07-.15.07-.24c0-.09-.02-.21-.06-.34s-.09-.24-.15-.3Z"/>
        <path class="cls-1" d="M45.65,31c-.01-.16-.02-.36,0-.59s0-.45-.03-.67-.09-.41-.18-.58-.24-.28-.46-.33h0c-.31-.08-.62-.14-.93-.19s-.62-.07-.93-.07c-.18,0-.36,0-.54.02s-.35.03-.53.04l-1.18.15c-.09,0-.18-.01-.28-.04s-.19-.04-.29-.04c-.07,0-.13,0-.19.03s-.13.03-.2.03c-.08,0-.15-.02-.23-.05s-.15-.05-.23-.05c-.07,0-.13.02-.19.05s-.12.05-.2.05c-.13,0-.25-.02-.37-.06s-.24-.06-.37-.06c-.19,0-.38.02-.57.05s-.38.05-.57.05c-.17,0-.33-.02-.49-.05s-.32-.05-.48-.05c-.23,0-.43.08-.58.23s-.28.34-.37.56-.16.45-.2.69-.06.45-.06.62c0,.2.03.39.09.58s.09.38.09.58c0,.09-.01.18-.04.26s-.04.17-.04.26c0,.07.01.14.04.21s.06.14.09.21.07.14.09.21.04.13.04.2c0,.06-.02.11-.05.15s-.05.1-.05.17c0,.09.04.17.12.23s.16.09.25.09c.11,0,.19-.04.24-.11s.09-.16.13-.25c.02-.07.05-.14.08-.21s.07-.16.11-.24.07-.16.1-.24.04-.15.04-.21c0-.1-.03-.19-.08-.27s-.08-.18-.08-.27c0-.07.02-.14.06-.22s.06-.16.06-.27c0-.11,0-.22-.02-.32s-.02-.21-.02-.32c0-.21.05-.4.16-.55s.24-.28.41-.37.35-.16.55-.21.39-.06.57-.06c.24,0,.48.02.73.06s.48.09.71.16c.17.05.28.12.34.22s.09.23.09.4c0,.5-.03.99-.1,1.47s-.1.98-.1,1.47c0,.42.04.83.13,1.23.03.11.05.22.06.34s.02.23.02.35c0,.28-.02.56-.06.83-.01.07-.03.14-.06.21s-.04.15-.04.22c0,.03.01.08.04.14s.06.12.09.19c.04.07.08.15.14.23-.05.09-.08.17-.11.24-.03.07-.06.13-.08.19s-.03.11-.03.13c0,.31.01.62.04.92s.06.61.11.92v.02c0,.06-.01.14-.04.25s-.07.22-.12.33-.1.21-.16.3-.11.15-.17.17c-.13.05-.27.08-.42.1s-.3.03-.44.04-.29.04-.43.08-.27.11-.38.21c.03.01.06.03.09.05s.04.05.04.08c0,.02,0,.04-.03.06-.07.02-.13.03-.2.04s-.13.03-.18.06-.1.1-.13.19-.05.22-.05.41c0,.16.05.28.16.36s.24.14.39.18.31.06.47.07.3,0,.41,0c.33,0,.66-.02.99-.07s.66-.1.99-.16.66-.11.98-.16.65-.07.99-.07c.13,0,.26,0,.4.01s.27.03.4.05c.03-.1.09-.17.16-.21s.16-.06.26-.06c-.01-.07-.02-.11-.02-.15,0-.1.02-.21.06-.3s.06-.2.06-.3-.04-.19-.11-.26-.17-.12-.27-.16-.22-.06-.33-.07-.21-.02-.29-.02h-.28c-.28,0-.49-.04-.63-.13s-.25-.2-.32-.33-.11-.27-.14-.41-.05-.27-.08-.38c-.03-.09-.09-.17-.16-.23s-.11-.14-.11-.22.02-.16.05-.24.05-.15.05-.24c0-.1-.02-.19-.06-.28s-.06-.18-.06-.28c0-.03.01-.05.04-.05s.06,0,.1,0,.07,0,.1-.02.04-.05.04-.11c0-.1-.01-.21-.04-.3s-.04-.2-.04-.3c0-.07.01-.14.04-.21s.04-.15.04-.22c0-.08-.02-.17-.05-.24s-.07-.15-.11-.23-.08-.15-.11-.21-.05-.14-.05-.21c0-.03,0-.08.03-.13.1-.27.15-.55.15-.84,0-.23-.01-.47-.04-.71s-.05-.47-.08-.71-.06-.47-.08-.71-.04-.48-.04-.72c0-.22,0-.44.03-.66s.03-.44.03-.66c0-.1,0-.2-.01-.29s-.03-.19-.06-.28c.16-.05.33-.1.49-.17s.33-.13.49-.19.33-.11.5-.15.34-.06.51-.06c.1,0,.23.01.37.04s.27.08.4.14.23.14.32.24.13.21.13.34c0,.09-.02.17-.06.23s-.08.13-.13.2-.09.13-.13.21-.06.16-.06.27c0,.15.03.29.09.42s.12.26.18.39c.03.08.06.17.09.29s.05.23.07.34.04.21.05.28.03.12.04.12c.03,0,.06,0,.08-.02s.05-.02.08-.02c.1,0,.17.04.2.12s.05.16.06.25.03.18.05.25.09.12.19.12c.06,0,.12-.02.2-.06s.14-.09.2-.16.12-.13.16-.2.08-.13.09-.19c.03-.11.04-.23.04-.35s0-.24,0-.36c0-.25-.01-.5-.04-.75s-.05-.5-.07-.75Z"/>
        <path class="cls-1" d="M57.69,34.76c-.04-.18-.08-.35-.12-.51s-.07-.34-.09-.51c-.01-.08-.04-.16-.07-.24s-.07-.17-.11-.24-.07-.15-.1-.22-.04-.14-.04-.21c0-.08,0-.15.03-.22s.03-.14.03-.21c0-.23-.04-.45-.12-.67s-.21-.41-.38-.57c-.14-.13-.24-.28-.32-.44s-.17-.32-.3-.46c-.06-.07-.11-.12-.17-.15s-.1-.07-.16-.11-.1-.08-.16-.13-.1-.12-.16-.21c-.12-.2-.27-.37-.47-.49s-.41-.23-.63-.3-.46-.12-.7-.15-.46-.04-.67-.04c-.2,0-.39.03-.58.1s-.38.12-.57.15c-.08.01-.17.04-.24.08s-.16.06-.24.06c-.03,0-.05-.01-.06-.03s-.01-.05-.01-.07v-.03s-.1.06-.16.11-.11.1-.14.13c-.09-.02-.18-.04-.26-.05s-.17-.02-.26-.02c-.13,0-.23.02-.31.06s-.16.1-.26.2c-.04.03-.08.05-.12.06s-.09.01-.13.01h-.08s-.08,0-.12,0-.08.02-.11.05c-.04.14-.1.27-.2.37s-.19.2-.3.29c-.26.2-.45.41-.58.63s-.23.49-.31.79c-.08.26-.16.52-.24.77s-.15.51-.2.78c-.02.08-.04.16-.05.22s-.03.13-.04.19-.03.12-.06.19-.07.14-.11.21l-.02.04c.03.05.08.08.17.1-.01.14-.04.28-.08.42s-.06.28-.06.42c0,.09.02.17.07.23s.07.15.07.26c0,.1,0,.2,0,.3s0,.2,0,.31c0,.32.02.64.07.95s.16.61.35.87c-.07.18-.11.36-.11.54s.02.33.07.5.1.32.17.48.12.31.18.47.1.32.12.49c.01.14.04.26.08.35s.09.16.15.23.13.13.21.19.16.14.24.23c.03.07.05.14.07.21s.05.14.07.21c.09.03.18.06.27.08s.19.04.28.05c.05.03.08.07.09.12s.03.1.04.16.03.11.04.16.05.09.09.13c.04.03.09.07.16.1s.14.07.21.1.15.06.22.09.13.05.19.07c.1.04.18.08.24.12s.13.08.2.11.13.07.21.1.17.05.29.06c.25.03.51.06.77.08s.52.03.78.03c.29,0,.5-.02.63-.06s.24-.09.32-.15.15-.12.21-.19.18-.12.33-.17c.14-.04.26-.07.36-.1s.21-.09.32-.21c.09-.1.18-.18.28-.24s.19-.12.27-.19.17-.13.24-.21.13-.19.19-.34c-.06.01-.12.02-.17.03s-.11,0-.17,0c-.12,0-.2-.02-.24-.07s-.07-.09-.08-.15-.01-.1,0-.15,0-.08-.02-.09c.07-.02.12-.02.17,0s.09.03.14.05.09.05.14.07.1.03.16.03.11-.02.14-.06.07-.09.09-.15.05-.12.07-.18.05-.1.08-.14c.03-.04.07-.07.12-.09s.09-.03.13-.04.08-.01.11-.02.05-.02.06-.03c.03-.05.06-.14.08-.27s.04-.22.05-.29c.06-.09.1-.19.12-.29s.03-.21.03-.31,0-.21.02-.31.04-.21.09-.3c.06-.11.11-.22.15-.34s.06-.24.06-.37c0-.05,0-.1-.01-.15s-.01-.1-.01-.15c0-.13.01-.26.04-.39s.06-.26.09-.39.06-.25.09-.38.04-.26.04-.4c0-.23,0-.46-.03-.68s-.07-.45-.12-.67ZM56.23,36.37c0,.1-.02.21-.03.31-.04.26-.06.52-.06.78s-.02.52-.05.78c-.01.12-.05.23-.1.34s-.09.22-.1.35c-.03.29-.09.52-.17.69s-.17.32-.28.45-.23.26-.37.4-.28.32-.43.55c-.09-.04-.18-.06-.26-.06-.1,0-.2.02-.29.07s-.17.1-.26.15-.17.11-.25.15-.18.07-.27.07c-.24,0-.49-.01-.74-.04s-.48-.12-.68-.26c-.07-.05-.14-.11-.22-.17s-.15-.12-.22-.17c-.06-.04-.11-.06-.14-.07s-.07-.01-.11-.02-.08-.03-.13-.06-.12-.1-.2-.2c-.05-.06-.12-.11-.19-.16s-.15-.1-.22-.15-.13-.11-.19-.17-.08-.14-.08-.23c0-.11-.03-.22-.1-.34s-.17-.17-.3-.17c-.03,0-.05,0-.07.01s-.04.01-.07.01c-.03,0-.06-.03-.09-.08s-.05-.11-.08-.19-.06-.15-.09-.23-.06-.15-.1-.2c-.05-.07-.1-.13-.16-.19s-.08-.13-.08-.22c0-.08.02-.15.05-.22s.05-.14.05-.21c0-.11-.02-.22-.07-.32s-.08-.21-.1-.32c-.03-.19-.05-.38-.05-.58s0-.39,0-.58c0-.08,0-.14.02-.18s.03-.05.05-.06.03-.02.05-.02.02-.02.02-.04c0-.05-.02-.11-.07-.18s-.07-.15-.07-.25c0-.05,0-.1.02-.15s.03-.09.05-.15c.08-.19.13-.38.17-.58s.05-.4.05-.6c0-.19.02-.38.06-.56s.08-.37.11-.56c.01-.1.04-.18.07-.22s.07-.09.11-.12.09-.07.13-.11.09-.1.13-.18c.12-.25.28-.45.47-.6s.39-.3.61-.47c.09-.07.19-.12.31-.13s.23-.02.35-.02c.14,0,.29,0,.42.02.14.01.27.02.41.02h0c.08,0,.21,0,.38.02s.35.03.54.06.4.07.61.12.41.11.59.19.34.17.48.27.23.23.27.38c.07.23.14.47.21.7s.15.47.22.7c.04.12.09.24.14.36s.1.24.12.37c.06.36.12.72.18,1.07s.09.72.09,1.08c0,.11,0,.22,0,.32Z"/>
        <path class="cls-1" d="M59.53,30.06s-.09-.05-.15-.05l-.06.02s0,.03,0,.04,0,.02,0,.03c0,.05.01.09.04.13s.07.06.11.06c.04,0,.07-.01.1-.04s.06-.06.08-.09c-.03-.03-.07-.07-.12-.1Z"/>
        <path class="cls-1" d="M69.19,31.91c-.02-.12-.06-.24-.11-.35s-.12-.19-.21-.25c-.1-.07-.18-.14-.24-.23s-.12-.18-.18-.27-.11-.19-.17-.28-.13-.17-.22-.24c-.06-.05-.12-.1-.19-.17s-.14-.13-.21-.19-.14-.12-.22-.16-.15-.08-.23-.09c-.23-.04-.45-.1-.66-.18s-.43-.16-.65-.23-.44-.15-.65-.21-.44-.09-.68-.09c-.21,0-.43.01-.64.04s-.43.04-.65.04c-.05,0-.12-.02-.21-.05s-.15-.07-.21-.09c-.1,0-.19.03-.27.08s-.17.08-.3.08c-.11,0-.22-.01-.34-.03s-.23-.03-.35-.03c-.05,0-.1,0-.14,0s-.09.02-.14.03c-.14.03-.29.06-.46.07s-.34.04-.51.07-.32.08-.47.14-.27.15-.36.27c.04-.01.08-.02.12-.02.07,0,.12.03.14.09s.03.11.03.17c0,.03,0,.07,0,.1s0,.07,0,.1c0,.07.01.13.04.18s.09.07.19.07c.07,0,.14,0,.21-.03s.14-.03.21-.03c.08,0,.16.03.22.1s.12.14.17.22.09.15.14.22.09.1.14.1c.08,0,.16-.03.22-.09s.14-.09.23-.09c.04,0,.08.02.12.05s.06.07.06.12c0,.07-.03.12-.09.16s-.13.07-.2.11-.14.09-.2.15-.09.16-.09.29c0,.22.02.44.06.65s.06.43.06.65c0,.08-.01.16-.03.24s-.05.15-.07.22-.05.15-.07.22-.03.15-.03.22c0,.13.01.26.03.39s.05.25.08.38.06.26.08.39.04.26.04.39c0,.08-.01.17-.04.24s-.04.16-.04.25c0,.08.03.15.09.2-.03.02-.04.05-.04.1,0,.16,0,.31.03.46s.03.3.03.46c0,.25-.02.49-.05.74s-.05.49-.05.74v.16c0,.07,0,.14.01.21s.02.13.04.19.05.1.09.12c0,.07,0,.14,0,.21v.21c0,.18-.02.33-.07.46s-.07.22-.07.26c0,.08.01.15.04.22s.04.15.04.22c0,.08-.04.15-.13.21s-.19.1-.32.15-.26.1-.41.15-.28.12-.41.2-.23.19-.32.31-.13.29-.13.47.04.35.12.48.22.19.44.19c.19,0,.37-.02.54-.07s.35-.08.53-.09c.3-.02.61-.03.92-.03.12,0,.24,0,.36,0s.23,0,.35,0c.31,0,.62,0,.93-.03.14,0,.23-.02.28-.03s.09-.04.11-.07.04-.07.06-.12.07-.12.15-.2c.07-.07.1-.14.1-.22,0-.1-.02-.17-.07-.21s-.1-.09-.16-.12-.11-.07-.16-.11-.07-.09-.07-.17c0-.05,0-.11.03-.17-.29-.08-.53-.14-.71-.18s-.33-.11-.43-.2-.17-.22-.21-.4-.05-.44-.05-.78c0-.19,0-.38,0-.56s0-.37,0-.56.02-.38.06-.56.06-.37.06-.56c0-.02,0-.05,0-.09s0-.08-.02-.13-.02-.08-.04-.11-.05-.05-.08-.05c-.04,0-.07.02-.1.05s-.06.05-.09.05c-.02,0-.04-.02-.05-.07v-.03h0s.06-.09.17-.14.24-.11.39-.17.28-.1.42-.15.22-.07.27-.07c.12-.01.23-.02.35-.03s.24,0,.36,0,.22,0,.29.03.15.06.26.12h.06c.43,0,.83-.06,1.2-.18s.74-.29,1.11-.52c.06-.04.14-.09.25-.15s.22-.13.33-.2.21-.14.3-.21.15-.14.17-.2c.08-.23.2-.43.35-.62s.27-.38.36-.61c.03-.09.06-.2.08-.32s.04-.25.06-.38.03-.26.03-.38,0-.23,0-.33,0-.21,0-.33-.02-.25-.04-.37ZM67.57,33.73c-.04.16-.1.3-.18.42s-.2.22-.34.29-.31.11-.51.11c-.11,0-.19.01-.24.04s-.09.06-.12.1-.07.08-.1.12-.09.07-.18.09c-.08.02-.22.04-.44.06s-.45.04-.69.05-.48.03-.71.04-.39.01-.48.01c-.15,0-.3,0-.46-.03,0-.03-.04-.1-.13-.23s-.18-.27-.28-.42-.2-.3-.28-.43-.13-.23-.13-.29c0-.05.02-.09.06-.13s.08-.07.13-.1.09-.07.13-.12.06-.12.06-.21c0-.12-.03-.24-.09-.36s-.09-.22-.09-.32c0-.06.02-.1.07-.12s.09-.04.15-.04c0-.09-.02-.18-.06-.27s-.09-.17-.14-.26-.09-.16-.13-.24-.06-.15-.06-.22c0-.08.04-.17.12-.27s.14-.19.19-.26c.03-.05.1-.1.21-.13s.23-.07.38-.09.3-.04.47-.05.33-.02.49-.03.3,0,.43,0h.29c.42,0,.79.07,1.13.21s.63.33.86.57.42.54.55.88.19.72.19,1.14c0,.18-.02.35-.05.51Z"/>
        <path class="cls-1" d="M86.53,37.39c-.07,0-.11-.03-.14-.07s-.05-.09-.06-.15-.02-.11-.03-.18-.02-.12-.05-.16c-.07-.13-.17-.24-.28-.33s-.21-.2-.28-.32c-.08-.12-.15-.23-.21-.31s-.13-.16-.2-.21-.14-.11-.23-.17-.19-.11-.32-.18c-.09,0-.17-.03-.25-.08s-.15-.1-.22-.15-.14-.1-.21-.15-.15-.06-.24-.06c-.1,0-.21,0-.31.02s-.21.02-.32.02c-.12,0-.23-.02-.34-.05s-.22-.07-.33-.11-.22-.08-.33-.11-.23-.05-.35-.05c-.11,0-.22,0-.33,0s-.22,0-.33,0c-.2,0-.38-.02-.54-.05s-.33-.11-.5-.22c-.16-.11-.32-.21-.46-.31s-.28-.21-.39-.34-.2-.28-.27-.46-.1-.42-.1-.7c0-.4.08-.77.24-1.11.18-.07.36-.14.55-.24s.38-.19.58-.27.39-.16.59-.22.39-.09.58-.09c.12,0,.23.01.35.04s.23.06.35.1.23.07.34.11.23.07.35.09c.11.02.2.03.28.03s.14,0,.2.02.11.05.17.09.11.13.19.24c.09.16.18.31.28.46s.19.3.3.45c.07.1.11.2.15.32s.06.23.09.35.06.23.1.34.1.21.19.3c.06.07.13.14.22.22s.19.11.28.11c.09,0,.16-.04.21-.13s.08-.18.11-.3.04-.23.04-.35,0-.21,0-.26c0-.17,0-.34-.03-.5s-.03-.33-.03-.5c0-.07.02-.12.07-.16s.07-.08.07-.13c0-.05-.03-.1-.08-.15s-.08-.15-.08-.28c0-.07,0-.14.02-.2s.02-.13.02-.2c0-.12-.02-.23-.05-.33s-.07-.21-.11-.31-.08-.21-.11-.32-.05-.22-.05-.33c0-.07,0-.14.03-.2v-.04c-.12-.05-.26-.1-.41-.18s-.29-.11-.42-.11c-.1,0-.17.02-.21.07s-.07.09-.1.15-.07.1-.12.15-.13.07-.25.07c-.12,0-.24-.02-.35-.05s-.22-.06-.34-.07c-.18-.03-.35-.04-.52-.04s-.35,0-.52,0c-.25,0-.49,0-.74,0s-.49,0-.74,0c-.07,0-.14,0-.21,0s-.14,0-.21,0c-.11,0-.19,0-.23.03s-.08.05-.1.08-.05.07-.08.1-.08.07-.15.09c-.05,0-.1,0-.14,0s-.09,0-.14,0c-.05,0-.09,0-.14,0s-.09,0-.14,0c-.07.04-.14.1-.2.2s-.13.17-.22.22c-.12.08-.24.18-.37.28s-.25.21-.37.33-.22.24-.31.37-.16.27-.21.41c0,.01,0,.03,0,.04s0,.03,0,.03c0,.05.02.09.07.1s.07.04.07.07-.01.06-.04.08-.05.04-.07.05c-.12.11-.19.23-.22.37s-.05.28-.05.43c0,.07.02.19.06.35s.09.34.15.52.12.36.18.52.11.28.15.34c.07.05.13.1.2.14s.14.09.21.13c.12.19.21.37.28.56.38.1.75.27,1.08.49.12.08.21.13.29.17s.15.06.22.08.14.03.22.03.19.02.32.04c.1.01.2.04.29.07s.2.07.29.1.2.06.3.09.2.04.3.04c.07,0,.12-.02.18-.05s.11-.05.17-.05c.03,0,.06.01.1.04.14.1.29.16.44.18s.32.03.48.03.32.03.47.06.29.11.42.23c.12.12.24.21.36.27s.24.13.35.2.2.15.27.25.11.25.13.44c.01.21.02.41.03.61s.03.4.05.61c0,.02,0,.05,0,.09,0,.1-.04.19-.13.27s-.15.16-.2.24c-.07.12-.16.23-.26.33s-.21.18-.33.26-.24.15-.36.22-.24.15-.35.22c-.16.12-.31.23-.45.34s-.29.2-.44.29-.32.15-.5.21-.39.08-.63.08c-.29,0-.58-.02-.87-.06s-.58-.09-.87-.16c-.19-.13-.36-.28-.53-.44s-.31-.34-.44-.53c-.09,0-.16-.01-.22-.02s-.11-.02-.15-.03-.09-.04-.13-.08-.08-.1-.14-.18c-.03-.05-.06-.11-.09-.17s-.04-.12-.04-.19c0-.08.01-.15.03-.22s.03-.15.03-.22c0-.05-.02-.12-.05-.21s-.06-.16-.09-.21c.04,0,.07-.01.1-.04s.04-.06.04-.09c0-.1-.03-.24-.1-.44s-.15-.39-.25-.59-.21-.37-.33-.51-.24-.22-.36-.22c-.06,0-.1.03-.14.08s-.06.11-.07.19-.02.14-.02.22,0,.13,0,.17c0,.08,0,.16,0,.23s0,.16,0,.23c0,.05-.02.1-.06.14s-.06.09-.06.15c0,.08.02.16.06.24s.06.15.06.24c0,.11-.02.22-.05.33s-.05.22-.05.33c0,.16.02.31.05.46s.05.3.05.46c0,.11-.01.22-.03.33s-.03.22-.03.33c0,.16.02.32.05.48s.08.32.16.47.16.29.26.42.23.23.38.31c.03.01.07.03.13.06s.1.04.14.04c.05,0,.08-.03.12-.1s.07-.12.1-.14c.07-.05.18-.09.31-.12s.25-.04.33-.04c.21,0,.42.03.62.08s.4.12.6.19.4.13.6.19.41.08.62.08c.29,0,.58-.04.85-.11s.54-.16.81-.27c.14-.06.31-.12.51-.18s.4-.12.6-.19.36-.12.49-.17.21-.09.21-.13v-.12c0-.07,0-.14.02-.22s.06-.11.13-.11c.05,0,.1.02.14.05s.09.05.16.05c.06,0,.12-.02.18-.07s.12-.11.17-.18.11-.14.15-.21.09-.13.13-.17l.18-.18c.07-.07.13-.14.2-.22s.11-.16.16-.24.06-.16.06-.24c-.03,0-.07,0-.14,0-.08,0-.15-.01-.23-.04s-.11-.08-.11-.16c0-.07.03-.13.1-.18s.13-.07.21-.07c.06,0,.12.01.17.04s.11.07.15.11c.02-.33.05-.66.09-.98s.06-.64.06-.98c0-.07,0-.14,0-.21s0-.14-.01-.21Z"/>
        <path class="cls-1" d="M99.01,32.39c-.03-.09-.07-.19-.1-.28s-.05-.19-.06-.28c.09,0,.14-.05.14-.14-.07-.02-.11-.08-.14-.17s-.05-.19-.05-.31,0-.23,0-.35,0-.22,0-.31c-.02-.23-.06-.42-.11-.57s-.13-.27-.21-.38-.19-.21-.31-.32-.25-.23-.4-.39c-.1-.02-.2-.03-.29-.03-.23,0-.45.03-.67.08s-.45.08-.67.08-.47-.03-.71-.08-.49-.08-.73-.08c-.27,0-.54.03-.81.08s-.53.08-.81.08c-.25,0-.51,0-.77-.02s-.51-.02-.77-.02c-.13,0-.26,0-.38,0s-.25.02-.38.04c-.08.01-.21.02-.37.03s-.33.02-.53.03-.39.04-.59.07-.38.07-.55.12-.3.11-.4.2-.16.18-.16.3c0,.08.02.17.06.26s.09.18.15.25.13.14.21.19.17.08.26.08c.19.01.33.03.43.06s.18.08.24.14.11.14.15.24.1.23.18.4c.05.11.1.23.15.35s.07.25.07.38c0,.09-.02.18-.06.25s-.06.16-.06.23c0,.08.02.16.06.22s.06.14.06.23c0,.12-.01.23-.04.33s-.05.19-.08.28-.06.16-.08.23-.04.13-.04.19c0,.15.03.3.08.44s.08.29.08.44c0,.07,0,.13-.03.19s-.03.12-.03.18c0,.05,0,.08,0,.1l-.14,1.39c0,.05.02.12.05.21s.06.16.09.21c-.04.11-.07.21-.09.3s-.04.17-.05.25-.02.17-.02.25,0,.19,0,.31c0,.2.01.36.04.5s.08.29.15.47c.01.05.03.09.04.13s.02.08.02.13c0,.06-.03.13-.08.21s-.09.15-.1.21c-.03.1-.05.2-.05.29s0,.2,0,.29v.14s0,.09,0,.15c-.1.08-.22.17-.38.27s-.31.2-.45.31-.27.23-.38.36-.16.27-.16.41.05.28.14.38.2.18.34.24.28.1.42.12.28.03.4.03c.33,0,.66-.03.99-.1s.65-.1.99-.12c.49-.01.97-.03,1.46-.06s.97-.04,1.46-.04c.08,0,.17,0,.25,0s.16,0,.24,0,.14-.02.18-.06.08-.06.13-.06c.05,0,.09.02.12.05s.08.05.17.05c.12,0,.24-.03.38-.08s.31-.08.52-.08c.06,0,.14,0,.25,0s.23,0,.35,0c.16,0,.32,0,.46-.03s.25-.06.3-.12c.06-.07.11-.11.16-.14s.09-.06.14-.09.08-.07.12-.11.07-.11.11-.21c.07-.19.14-.41.21-.66s.13-.51.19-.78.1-.53.13-.78.05-.48.05-.68c0-.12,0-.27-.03-.45s-.06-.34-.11-.51-.13-.3-.24-.42-.24-.17-.4-.17c-.04,0-.1,0-.18.03s-.16.04-.23.07-.15.06-.21.1-.09.08-.09.12c0,.05,0,.1,0,.15s0,.09,0,.15c0,.18-.03.34-.09.48s-.09.32-.09.51c0,.12,0,.25,0,.38s.02.25.04.38c.01.06.04.12.08.19s.06.13.06.18c0,.05-.01.08-.04.1s-.06.04-.09.05-.07.04-.1.06-.05.06-.05.11c-.03.19-.11.33-.23.43s-.26.18-.43.23-.34.08-.52.09-.35.01-.5.01c-.2,0-.39,0-.59-.03s-.39-.03-.59-.03c-.31,0-.62.02-.94.06s-.62.06-.94.06c-.16,0-.33,0-.51-.03s-.35-.06-.51-.12-.29-.15-.39-.27-.15-.29-.15-.49c0-.19.02-.37.07-.56s.07-.37.07-.56c0-.18,0-.35-.03-.52s-.03-.35-.03-.52c0-.07,0-.14,0-.21s0-.13,0-.2c0-.08,0-.15-.02-.23s-.02-.15-.02-.23c0-.14.07-.25.21-.34s.3-.16.49-.21.38-.08.57-.1.34-.03.44-.03c.36,0,.63.03.81.09s.29.14.35.24.09.22.09.37.01.3.04.47c.01.11.03.22.06.33s.07.21.13.29.12.16.21.22.19.1.31.11c.1-.06.18-.13.24-.21s.11-.18.15-.28.06-.21.07-.32.01-.22.01-.32c0-.18-.01-.35-.04-.52s-.06-.34-.09-.51-.06-.33-.09-.49-.04-.31-.04-.45c0-.12.03-.24.09-.36s.09-.21.09-.29c0-.05-.02-.09-.06-.12s-.06-.09-.06-.15c0-.07,0-.14.02-.21s.02-.14.02-.21c0-.1-.02-.19-.05-.28s-.08-.18-.13-.27c.18-.05.27-.15.27-.32,0-.14-.02-.27-.07-.4s-.07-.26-.07-.39c-.03,0-.08,0-.15,0-.16,0-.31-.03-.45-.08s-.3-.08-.46-.08h-.06c0,.16,0,.32.01.48s.01.32.01.48c0,.08,0,.2,0,.36s-.02.32-.05.48-.08.3-.15.42-.16.18-.29.18c-.08,0-.17-.01-.25-.04s-.17-.04-.26-.04c-.23,0-.45.03-.67.08s-.44.08-.67.08c-.06,0-.12,0-.18,0s-.11-.01-.17-.02c-.08-.02-.15-.1-.2-.24s-.08-.3-.1-.48-.04-.36-.04-.55,0-.33,0-.44c0-.26,0-.52.01-.78s.01-.52.01-.78c0-.07,0-.14,0-.21s0-.14,0-.21c0-.13.03-.25.08-.35s.17-.16.35-.18c.1,0,.16-.03.2-.07s.06-.09.07-.14.04-.1.06-.15.07-.08.14-.1c.01.09.07.16.17.21s.21.08.34.11.25.04.37.04.22,0,.28,0h.32c.11,0,.21-.01.31-.04.07-.02.12-.06.16-.11s.08-.08.13-.08h.08s.06.01.06.04c0,.01-.02.03-.07.05s-.07.04-.07.05c0,0,0,0,.03,0,.18,0,.37-.02.57-.07s.39-.07.6-.07c.11,0,.22,0,.32,0s.21,0,.31,0c.26,0,.51-.03.74-.09s.48-.09.72-.09c.1,0,.18.02.22.07s.11.07.19.07h.05c-.08.1-.14.22-.18.34s-.05.25-.05.38c0,.2.02.4.06.6s.06.39.06.6c0,.05,0,.11-.01.17s-.01.11-.01.17c0,.03,0,.08.02.15s.04.14.06.22.05.15.08.22.05.12.06.14c.08.14.18.23.3.28s.26.08.41.08h-.04s.06,0,.09,0,.06,0,.08,0h.05s.03,0,.04,0h-.02s.06-.09.11-.17.09-.16.13-.25.08-.18.11-.25.05-.13.05-.16c0-.08-.01-.17-.04-.27s-.06-.19-.09-.28ZM91.04,35.41c.14.04.27.1.39.17s.21.16.28.26.08.21.02.33c-.04.09-.08.13-.12.12s-.1-.05-.18-.13-.2-.18-.34-.31-.34-.26-.59-.41c.01-.05.04-.08.07-.09s.07-.02.11-.02c.1,0,.22.02.36.06Z"/>
        <path class="cls-1" d="M110.65,37.08s-.05-.05-.09-.14-.1-.18-.17-.29-.14-.2-.22-.28-.17-.13-.27-.13c-.07,0-.14.02-.2.06s-.12.06-.19.06-.12-.02-.16-.07-.1-.07-.17-.07c-.08,0-.14.03-.19.09s-.08.14-.1.23-.04.21-.04.33,0,.25,0,.38v.45c0,.18,0,.34-.02.47s-.05.22-.11.25c-.07.03-.13.12-.19.25s-.12.28-.18.44-.12.32-.17.47-.11.26-.16.33c-.08.11-.18.19-.29.23s-.23.08-.35.1-.24.06-.36.1-.22.11-.31.21c-.13.14-.29.23-.48.27s-.38.07-.55.07c-.1,0-.2,0-.29-.02s-.2-.02-.29-.02c-.09,0-.18.01-.26.03s-.17.03-.26.03c-.12,0-.24-.03-.36-.1s-.22-.15-.32-.26-.18-.22-.24-.34-.12-.24-.14-.35c-.05-.21-.13-.41-.23-.6s-.19-.39-.24-.6c-.08-.28-.13-.56-.16-.84s-.04-.57-.04-.86c0-.24,0-.48-.02-.72s-.02-.48-.02-.73c0-.13,0-.26.02-.39s.04-.26.08-.39c.05-.16.07-.32.08-.49s.01-.34.01-.51,0-.33.02-.5.04-.32.09-.47c.02-.07.06-.11.13-.15s.12-.08.15-.13c.07-.1.1-.22.09-.34s.01-.24.04-.36c.03-.12.07-.21.12-.28s.12-.13.2-.18.15-.09.23-.13.17-.08.26-.14c.23-.14.46-.25.69-.33s.48-.12.76-.12c.39,0,.77.09,1.13.26s.69.37.99.6c.08.07.15.15.21.25s.11.21.16.32.1.23.15.34.12.21.2.29c.09.1.17.21.24.32s.14.23.21.35.14.23.21.35.15.22.24.33c-.05.02-.09.02-.15,0s-.1-.05-.14-.07-.08-.04-.11-.03-.04.04-.04.11c0,.07.02.11.07.14s.1.05.16.06.12.02.19.02.12.02.16.05c.06.03.09.07.1.1s.01.07.01.1,0,.05.02.07.05.03.11.03c.03,0,.06,0,.09,0s.06,0,.09-.01c.05.02.1.03.16.03s.11-.02.14-.07.07-.1.09-.17.04-.13.05-.21.03-.13.04-.19c.04-.18.07-.37.08-.55s.02-.37.02-.56c0-.21,0-.41-.01-.61s-.01-.4-.01-.61c0-.17.02-.33.07-.5s.07-.33.07-.5-.02-.32-.07-.46-.07-.3-.07-.46c0-.02-.02-.07-.05-.14s-.08-.15-.13-.23-.1-.16-.14-.23-.08-.11-.1-.13c-.03-.03-.08-.05-.15-.08s-.14-.06-.22-.08-.15-.05-.23-.07-.14-.03-.19-.04c-.04,0-.08,0-.11,0s-.06.01-.07.02h.03c-.05.02-.09.07-.12.13s-.06.13-.1.2-.09.13-.16.18-.17.07-.31.07-.28-.02-.43-.05-.29-.08-.42-.14c-.29-.13-.58-.24-.87-.32s-.59-.12-.92-.12c-.12,0-.29.01-.48.04s-.42.07-.65.13-.47.12-.71.2-.46.16-.66.25-.37.2-.51.3-.22.22-.24.35c-.05.2-.11.38-.2.55s-.18.33-.27.5-.2.33-.3.49-.18.33-.25.52c-.07.17-.11.34-.14.52s-.04.35-.05.54-.02.36-.02.55-.01.36-.02.54c-.01.19-.04.38-.07.56s-.07.37-.1.56-.06.38-.08.57-.03.38-.03.57c0,.18.01.35.04.53s.06.35.09.53.07.34.09.5.04.32.04.47c0,.24.01.41.03.49s.06.14.1.17.1.04.16.04.14.05.22.14c.05.05.08.11.1.19s.04.17.06.25.04.18.06.26.06.16.1.23c.21.29.43.57.67.85s.51.52.8.71c.07.05.13.08.19.09s.1.03.14.04.08.04.12.08.07.1.11.2c.05.12.1.22.18.3s.18.13.31.15c.14.09.3.16.46.21s.33.08.5.08c.19,0,.37-.02.53-.07s.33-.11.48-.18.31-.15.46-.23.31-.15.48-.22c.14-.05.28-.11.42-.18s.28-.12.43-.18c.1-.03.17-.07.21-.1s.07-.08.09-.12.04-.09.06-.15.06-.11.12-.19c.08-.1.17-.18.26-.25s.2-.15.3-.22c.07-.05.11-.1.14-.15s.04-.09.04-.13,0-.09,0-.15.01-.12.03-.19.04-.17.05-.28.04-.23.07-.35.07-.21.12-.29.13-.12.23-.12h.08c.08,0,.13-.03.15-.1s.03-.14.04-.21c.01-.11.04-.21.08-.31s.08-.2.1-.31c.03-.13.05-.26.06-.4s.01-.27.01-.4c0-.06,0-.13-.01-.23s-.05-.15-.11-.16Z"/>
        <path class="cls-1" d="M124.03,40.26c-.07-.1-.17-.18-.31-.24s-.3-.1-.5-.12c-.1.04-.19.11-.25.22s-.12.22-.17.34-.1.22-.15.31-.12.14-.21.14c-.1,0-.19-.07-.28-.21s-.17-.3-.24-.48-.13-.36-.18-.54-.08-.31-.09-.39c-.03-.18-.04-.36-.05-.55s-.02-.36-.04-.55-.04-.36-.07-.54-.08-.36-.16-.53c-.07-.17-.15-.33-.24-.5s-.13-.34-.13-.53c0-.12.03-.22.09-.32s.13-.19.21-.29.16-.19.24-.29.13-.2.17-.31c.03-.08.06-.14.11-.19s.1-.08.16-.11.12-.06.18-.08.12-.06.18-.1c.1-.07.17-.17.22-.29s.09-.26.12-.4.04-.29.05-.44,0-.29,0-.41c0-.09,0-.19,0-.31s0-.22-.03-.33l-.02-.02-.14.04-.02-.03c0-.1.03-.18.09-.26s.09-.16.09-.26c0-.07-.02-.14-.06-.2s-.09-.12-.14-.17-.1-.1-.14-.14-.06-.08-.06-.11c0-.05.02-.09.06-.11s.06-.06.06-.1-.03-.1-.09-.17-.13-.14-.21-.22-.16-.17-.23-.27-.12-.21-.14-.32c-.03-.18-.11-.34-.22-.48s-.26-.25-.42-.34-.33-.16-.51-.21-.36-.08-.53-.09c-.25-.01-.5-.05-.74-.12s-.5-.1-.75-.1c-.08,0-.17.02-.26.05-.2.07-.39.12-.59.15s-.4.05-.61.05c-.25,0-.5-.03-.75-.1s-.5-.1-.75-.1c-.18,0-.35.02-.51.07s-.33.08-.5.09c-.15.01-.32.02-.51.01s-.37.01-.54.05-.31.11-.42.21-.17.27-.17.49c0,.05,0,.11.01.19s.03.14.05.2.06.11.11.16.1.06.18.06c.03,0,.07,0,.1,0s.07,0,.1,0c.15,0,.28.04.39.12s.2.19.27.31.13.27.18.43.08.33.1.49.05.32.06.47.03.28.04.39c.01.13.02.26.03.38s0,.25,0,.38c0,.47-.03.93-.09,1.39s-.09.92-.09,1.39c0,.07,0,.14,0,.21s0,.13,0,.21c0,.27-.02.55-.06.82s-.06.55-.06.82c0,.23.03.45.08.67s.08.45.08.67c0,.12-.02.26-.05.4-.03.13-.05.27-.05.43s-.01.31-.03.45-.06.28-.12.41-.16.22-.29.3c-.05.03-.1.05-.16.05-.03,0-.07,0-.1,0s-.07,0-.1,0c-.05,0-.08,0-.11.03s-.06.05-.09.08c-.05.05-.1.09-.14.12s-.08.05-.11.06-.08.02-.13.02-.11,0-.18,0c-.08,0-.16.03-.24.06s-.16.08-.24.13-.13.11-.18.19-.07.15-.07.24c0,.11.03.21.09.28s.14.14.23.19.19.08.3.1.21.03.3.03c.14,0,.27-.01.41-.03s.27-.05.41-.08.28-.06.42-.08.28-.03.42-.03c.18,0,.36.02.54.06s.35.06.54.06c.12,0,.24,0,.36-.01s.24-.03.35-.05c.14-.03.27-.06.37-.08s.2-.05.29-.09.17-.09.24-.16.15-.17.24-.31c.03-.05.06-.11.08-.16s.03-.12.03-.18c0-.17-.05-.3-.16-.4s-.24-.18-.4-.25-.33-.13-.52-.2-.36-.15-.52-.25-.29-.23-.4-.4-.16-.38-.16-.64c0-.09,0-.18.02-.26s.03-.16.04-.25c.1-.55.15-1.1.15-1.67v-.31c0-.12.03-.23.08-.33s.13-.19.22-.26.19-.13.3-.18.22-.06.33-.06c.09,0,.18.01.27.04s.18.04.27.04c.14,0,.29-.01.42-.04s.28-.04.42-.04.26,0,.39.02.26.02.39.02h.19c.06,0,.12,0,.18-.02.12.18.24.34.34.47s.19.26.26.39.13.27.18.43.06.35.06.6c0,.07,0,.14,0,.21s0,.14,0,.21c0,.13.02.23.07.31s.07.16.07.23c0,.03,0,.05-.02.07s-.04.05-.06.08-.04.07-.06.11-.02.1-.02.16.02.15.05.24c.08.21.13.46.16.73s.07.54.13.8.15.5.28.7.32.36.59.45c.22.07.45.15.68.23s.47.13.7.13c.04,0,.12-.01.23-.03s.24-.05.36-.09.23-.07.33-.11.15-.07.15-.09c0-.03-.01-.06-.03-.07s-.03-.04-.03-.07.02-.07.05-.1.07-.05.1-.05.06,0,.08.02.05.02.08.02c.05,0,.07-.03.08-.09s0-.13,0-.21,0-.16.02-.23.06-.13.12-.17c.06-.03.09-.1.1-.2s0-.18,0-.23c0-.2-.01-.37-.04-.51s-.08-.27-.15-.37ZM120.76,33.34c-.1.15-.21.29-.31.42s-.21.23-.3.31-.18.12-.25.12c-.27,0-.55.04-.83.13s-.54.19-.79.3c-.05.03-.11.05-.17.06s-.12.02-.19.02c-.08,0-.16-.02-.23-.05s-.14-.07-.21-.11-.13-.08-.2-.11-.13-.05-.21-.05c-.14,0-.27.03-.39.08s-.25.08-.39.08c-.14,0-.26-.03-.36-.09s-.17-.13-.23-.23-.1-.2-.12-.32-.03-.24-.03-.36c0-.1.01-.19.04-.28s.06-.18.09-.27.06-.18.09-.27.04-.19.04-.28c0-.2-.02-.4-.06-.6s-.06-.39-.06-.6.04-.35.11-.46.17-.2.29-.26.25-.11.4-.15.3-.07.45-.11c.23-.05.45-.08.66-.08.15,0,.3.02.44.05s.29.05.44.05c.05,0,.11-.02.18-.06s.14-.06.21-.06c.25,0,.47.03.65.09s.39.14.62.25c.08.04.12.08.14.12s.03.07.04.1.04.05.09.07.14.03.27.03c.07.07.13.16.2.27s.13.23.19.35.11.25.15.37.06.23.06.32c0,.07-.02.17-.07.3s-.11.27-.2.42-.17.31-.28.46Z"/>
        <path class="cls-1" d="M136.1,32.39c-.03-.09-.07-.19-.1-.28s-.05-.19-.06-.28c.09,0,.14-.05.14-.14-.07-.02-.11-.08-.14-.17s-.05-.19-.05-.31,0-.23,0-.35,0-.22,0-.31c-.02-.23-.06-.42-.11-.57s-.13-.27-.21-.38-.19-.21-.31-.32-.25-.23-.4-.39c-.1-.02-.2-.03-.29-.03-.23,0-.45.03-.67.08s-.45.08-.67.08-.47-.03-.71-.08-.49-.08-.73-.08c-.27,0-.54.03-.81.08s-.53.08-.81.08c-.25,0-.51,0-.77-.02s-.51-.02-.77-.02c-.13,0-.26,0-.38,0s-.25.02-.38.04c-.08.01-.21.02-.37.03s-.33.02-.53.03-.39.04-.59.07-.38.07-.55.12-.3.11-.4.2-.16.18-.16.3c0,.08.02.17.06.26s.09.18.15.25.13.14.21.19.17.08.26.08c.19.01.33.03.43.06s.18.08.24.14.11.14.15.24.1.23.18.4c.05.11.1.23.15.35s.07.25.07.38c0,.09-.02.18-.06.25s-.06.16-.06.23c0,.08.02.16.06.22s.06.14.06.23c0,.12-.01.23-.04.33s-.05.19-.08.28-.06.16-.08.23-.04.13-.04.19c0,.15.03.3.08.44s.08.29.08.44c0,.07,0,.13-.03.19s-.03.12-.03.18c0,.05,0,.08,0,.1l-.14,1.39c0,.05.02.12.05.21s.06.16.09.21c-.04.11-.07.21-.09.3s-.04.17-.05.25-.02.17-.02.25,0,.19,0,.31c0,.2.01.36.04.5s.08.29.15.47c.01.05.03.09.04.13s.02.08.02.13c0,.06-.03.13-.08.21s-.09.15-.1.21c-.03.1-.05.2-.05.29s0,.2,0,.29v.14s0,.09,0,.15c-.1.08-.22.17-.38.27s-.31.2-.45.31-.27.23-.38.36-.16.27-.16.41.05.28.14.38.2.18.34.24.28.1.42.12.28.03.4.03c.33,0,.66-.03.99-.1s.65-.1.99-.12c.49-.01.97-.03,1.46-.06s.97-.04,1.46-.04c.08,0,.17,0,.25,0s.16,0,.24,0,.14-.02.18-.06.08-.06.13-.06c.05,0,.09.02.12.05s.08.05.17.05c.12,0,.24-.03.38-.08s.31-.08.52-.08c.06,0,.14,0,.25,0s.23,0,.35,0c.16,0,.32,0,.46-.03s.25-.06.3-.12c.06-.07.11-.11.16-.14s.09-.06.14-.09.08-.07.12-.11.07-.11.11-.21c.07-.19.14-.41.21-.66s.13-.51.19-.78.1-.53.13-.78.05-.48.05-.68c0-.12,0-.27-.03-.45s-.06-.34-.11-.51-.13-.3-.24-.42-.24-.17-.4-.17c-.04,0-.1,0-.18.03s-.16.04-.23.07-.15.06-.21.1-.09.08-.09.12c0,.05,0,.1,0,.15s0,.09,0,.15c0,.18-.03.34-.09.48s-.09.32-.09.51c0,.12,0,.25,0,.38s.02.25.04.38c.01.06.04.12.08.19s.06.13.06.18c0,.05-.01.08-.04.1s-.06.04-.09.05-.07.04-.1.06-.05.06-.05.11c-.03.19-.11.33-.23.43s-.26.18-.43.23-.34.08-.52.09-.35.01-.5.01c-.2,0-.39,0-.59-.03s-.39-.03-.59-.03c-.31,0-.62.02-.94.06s-.62.06-.94.06c-.16,0-.33,0-.51-.03s-.35-.06-.51-.12-.29-.15-.39-.27-.15-.29-.15-.49c0-.19.02-.37.07-.56s.07-.37.07-.56c0-.18,0-.35-.03-.52s-.03-.35-.03-.52c0-.07,0-.14,0-.21s0-.13,0-.2c0-.08,0-.15-.02-.23s-.02-.15-.02-.23c0-.14.07-.25.21-.34s.3-.16.49-.21.38-.08.57-.1.34-.03.44-.03c.36,0,.63.03.81.09s.29.14.35.24.09.22.09.37.01.3.04.47c.01.11.03.22.06.33s.07.21.13.29.12.16.21.22.19.1.31.11c.1-.06.18-.13.24-.21s.11-.18.15-.28.06-.21.07-.32.01-.22.01-.32c0-.18-.01-.35-.04-.52s-.06-.34-.09-.51-.06-.33-.09-.49-.04-.31-.04-.45c0-.12.03-.24.09-.36s.09-.21.09-.29c0-.05-.02-.09-.06-.12s-.06-.09-.06-.15c0-.07,0-.14.02-.21s.02-.14.02-.21c0-.1-.02-.19-.05-.28s-.08-.18-.13-.27c.18-.05.27-.15.27-.32,0-.14-.02-.27-.07-.4s-.07-.26-.07-.39c-.03,0-.08,0-.15,0-.16,0-.31-.03-.45-.08s-.3-.08-.46-.08h-.06c0,.16,0,.32.01.48s.01.32.01.48c0,.08,0,.2,0,.36s-.02.32-.05.48-.08.3-.15.42-.16.18-.29.18c-.08,0-.17-.01-.25-.04s-.17-.04-.26-.04c-.23,0-.45.03-.67.08s-.44.08-.67.08c-.06,0-.12,0-.18,0s-.11-.01-.17-.02c-.08-.02-.15-.1-.2-.24s-.08-.3-.1-.48-.04-.36-.04-.55,0-.33,0-.44c0-.26,0-.52.01-.78s.01-.52.01-.78c0-.07,0-.14,0-.21s0-.14,0-.21c0-.13.03-.25.08-.35s.17-.16.35-.18c.1,0,.16-.03.2-.07s.06-.09.07-.14.04-.1.06-.15.07-.08.14-.1c.01.09.07.16.17.21s.21.08.34.11.25.04.37.04.22,0,.28,0h.32c.11,0,.21-.01.31-.04.07-.02.12-.06.16-.11s.08-.08.13-.08h.08s.06.01.06.04c0,.01-.02.03-.07.05s-.07.04-.07.05c0,0,0,0,.03,0,.18,0,.37-.02.57-.07s.39-.07.6-.07c.11,0,.22,0,.32,0s.21,0,.31,0c.26,0,.51-.03.74-.09s.48-.09.72-.09c.1,0,.18.02.22.07s.11.07.19.07h.05c-.08.1-.14.22-.18.34s-.05.25-.05.38c0,.2.02.4.06.6s.06.39.06.6c0,.05,0,.11-.01.17s-.01.11-.01.17c0,.03,0,.08.02.15s.04.14.06.22.05.15.08.22.05.12.06.14c.08.14.18.23.3.28s.26.08.41.08h-.04s.06,0,.09,0,.06,0,.08,0h.05s.03,0,.04,0h-.02s.06-.09.11-.17.09-.16.13-.25.08-.18.11-.25.05-.13.05-.16c0-.08-.01-.17-.04-.27s-.06-.19-.09-.28ZM128.13,35.41c.14.04.27.1.39.17s.21.16.28.26.08.21.02.33c-.04.09-.08.13-.12.12s-.1-.05-.18-.13-.2-.18-.34-.31-.34-.26-.59-.41c.01-.05.04-.08.07-.09s.07-.02.11-.02c.1,0,.22.02.36.06Z"/>
        <path class="cls-1" d="M148.43,31c-.01-.16-.02-.36,0-.59s0-.45-.03-.67-.09-.41-.18-.58-.24-.28-.46-.33h0c-.31-.08-.62-.14-.93-.19s-.62-.07-.93-.07c-.18,0-.36,0-.54.02s-.35.03-.53.04l-1.18.15c-.09,0-.18-.01-.28-.04s-.19-.04-.29-.04c-.07,0-.13,0-.19.03s-.13.03-.2.03c-.08,0-.15-.02-.23-.05s-.15-.05-.23-.05c-.07,0-.13.02-.19.05s-.12.05-.2.05c-.13,0-.25-.02-.37-.06s-.24-.06-.37-.06c-.19,0-.38.02-.57.05s-.38.05-.57.05c-.17,0-.33-.02-.49-.05s-.32-.05-.48-.05c-.23,0-.43.08-.58.23s-.28.34-.37.56-.16.45-.2.69-.06.45-.06.62c0,.2.03.39.09.58s.09.38.09.58c0,.09-.01.18-.04.26s-.04.17-.04.26c0,.07.01.14.04.21s.06.14.09.21.07.14.09.21.04.13.04.2c0,.06-.02.11-.05.15s-.05.1-.05.17c0,.09.04.17.12.23s.16.09.25.09c.11,0,.19-.04.24-.11s.09-.16.13-.25c.02-.07.05-.14.08-.21s.07-.16.11-.24.07-.16.1-.24.04-.15.04-.21c0-.1-.03-.19-.08-.27s-.08-.18-.08-.27c0-.07.02-.14.06-.22s.06-.16.06-.27c0-.11,0-.22-.02-.32s-.02-.21-.02-.32c0-.21.05-.4.16-.55s.24-.28.41-.37.35-.16.55-.21.39-.06.57-.06c.24,0,.48.02.73.06s.48.09.71.16c.17.05.28.12.34.22s.09.23.09.4c0,.5-.03.99-.1,1.47s-.1.98-.1,1.47c0,.42.04.83.13,1.23.03.11.05.22.06.34s.02.23.02.35c0,.28-.02.56-.06.83-.01.07-.03.14-.06.21s-.04.15-.04.22c0,.03.01.08.04.14s.06.12.09.19c.04.07.08.15.14.23-.05.09-.08.17-.11.24-.03.07-.06.13-.08.19s-.03.11-.03.13c0,.31.01.62.04.92s.06.61.11.92v.02c0,.06-.01.14-.04.25s-.07.22-.12.33-.1.21-.16.3-.11.15-.17.17c-.13.05-.27.08-.42.1s-.3.03-.44.04-.29.04-.43.08-.27.11-.38.21c.03.01.06.03.09.05s.04.05.04.08c0,.02,0,.04-.03.06-.07.02-.13.03-.2.04s-.13.03-.18.06-.1.1-.13.19-.05.22-.05.41c0,.16.05.28.16.36s.24.14.39.18.31.06.47.07.3,0,.41,0c.33,0,.66-.02.99-.07s.66-.1.99-.16.66-.11.98-.16.65-.07.99-.07c.13,0,.26,0,.4.01s.27.03.4.05c.03-.1.09-.17.16-.21s.16-.06.26-.06c-.01-.07-.02-.11-.02-.15,0-.1.02-.21.06-.3s.06-.2.06-.3-.04-.19-.11-.26-.17-.12-.27-.16-.22-.06-.33-.07-.21-.02-.29-.02h-.28c-.28,0-.49-.04-.63-.13s-.25-.2-.32-.33-.11-.27-.14-.41-.05-.27-.08-.38c-.03-.09-.09-.17-.16-.23s-.11-.14-.11-.22.02-.16.05-.24.05-.15.05-.24c0-.1-.02-.19-.06-.28s-.06-.18-.06-.28c0-.03.01-.05.04-.05s.06,0,.1,0,.07,0,.1-.02.04-.05.04-.11c0-.1-.01-.21-.04-.3s-.04-.2-.04-.3c0-.07.01-.14.04-.21s.04-.15.04-.22c0-.08-.02-.17-.05-.24s-.07-.15-.11-.23-.08-.15-.11-.21-.05-.14-.05-.21c0-.03,0-.08.03-.13.1-.27.15-.55.15-.84,0-.23-.01-.47-.04-.71s-.05-.47-.08-.71-.06-.47-.08-.71-.04-.48-.04-.72c0-.22,0-.44.03-.66s.03-.44.03-.66c0-.1,0-.2-.01-.29s-.03-.19-.06-.28c.16-.05.33-.1.49-.17s.33-.13.49-.19.33-.11.5-.15.34-.06.51-.06c.1,0,.23.01.37.04s.27.08.4.14.23.14.32.24.13.21.13.34c0,.09-.02.17-.06.23s-.08.13-.13.2-.09.13-.13.21-.06.16-.06.27c0,.15.03.29.09.42s.12.26.18.39c.03.08.06.17.09.29s.05.23.07.34.04.21.05.28.03.12.04.12c.03,0,.06,0,.08-.02s.05-.02.08-.02c.1,0,.17.04.2.12s.05.16.06.25.03.18.05.25.09.12.19.12c.06,0,.12-.02.2-.06s.14-.09.2-.16.12-.13.16-.2.08-.13.09-.19c.03-.11.04-.23.04-.35s0-.24,0-.36c0-.25-.01-.5-.04-.75s-.05-.5-.07-.75Z"/>
        <path class="cls-1" d="M158.36,35.22c-.04-.14-.09-.24-.15-.3-.03-.03-.07-.06-.11-.08s-.08-.05-.11-.08c-.02-.03-.04-.07-.05-.1s-.04-.07-.07-.1c-.07-.05-.17-.09-.32-.11s-.26-.03-.35-.03c-.1,0-.21.01-.33.04s-.21.1-.26.2c-.03.05-.04.11-.03.16s0,.12,0,.18c-.01.06-.03.11-.05.14s-.04.07-.05.1-.03.07-.04.12-.02.11-.02.2c0,.05-.02.1-.05.14s-.05.1-.05.16c0,.09.03.18.1.28s.15.18.25.26.21.15.32.2.21.08.3.08c.15,0,.26-.04.32-.12s.13-.17.21-.26c.05-.06.11-.11.19-.16s.14-.1.2-.16.12-.12.16-.18.07-.15.07-.24c0-.09-.02-.21-.06-.34Z"/>
      </g>
    </g>
  </g>
</svg>